<?xml version="1.0" encoding="UTF-8" standalone="no"?>
<svg width="150" height="80" viewBox="0 0 150 80" fill="none" xmlns="http://www.w3.org/2000/svg">
  <!-- Breadboard Base -->
  <rect x="5" y="5" width="140" height="70" rx="3" fill="#f8f9fa" stroke="#adb5bd" stroke-width="2"/>
  
  <!-- Power Rails - Positive -->
  <rect x="10" y="10" width="130" height="8" fill="#e63946" stroke="#d00000" stroke-width="1"/>
  <!-- Power Rails - Negative -->
  <rect x="10" y="62" width="130" height="8" fill="#1d3557" stroke="#0a0908" stroke-width="1"/>
  
  <!-- Component Area -->
  <rect x="10" y="25" width="130" height="30" fill="#f8f9fa" stroke="#adb5bd" stroke-width="1"/>
  
  <!-- Pin Holes - Power Rails -->
  <g fill="#dee2e6">
    <!-- Positive Rail -->
    <circle cx="15" cy="14" r="1.5" />
    <circle cx="25" cy="14" r="1.5" />
    <circle cx="35" cy="14" r="1.5" />
    <circle cx="45" cy="14" r="1.5" />
    <circle cx="55" cy="14" r="1.5" />
    <circle cx="65" cy="14" r="1.5" />
    <circle cx="75" cy="14" r="1.5" />
    <circle cx="85" cy="14" r="1.5" />
    <circle cx="95" cy="14" r="1.5" />
    <circle cx="105" cy="14" r="1.5" />
    <circle cx="115" cy="14" r="1.5" />
    <circle cx="125" cy="14" r="1.5" />
    <circle cx="135" cy="14" r="1.5" />
    
    <!-- Negative Rail -->
    <circle cx="15" cy="66" r="1.5" />
    <circle cx="25" cy="66" r="1.5" />
    <circle cx="35" cy="66" r="1.5" />
    <circle cx="45" cy="66" r="1.5" />
    <circle cx="55" cy="66" r="1.5" />
    <circle cx="65" cy="66" r="1.5" />
    <circle cx="75" cy="66" r="1.5" />
    <circle cx="85" cy="66" r="1.5" />
    <circle cx="95" cy="66" r="1.5" />
    <circle cx="105" cy="66" r="1.5" />
    <circle cx="115" cy="66" r="1.5" />
    <circle cx="125" cy="66" r="1.5" />
    <circle cx="135" cy="66" r="1.5" />
  </g>
  
  <!-- Component Area Pins -->
  <g fill="#dee2e6">
    <!-- Top Row -->
    <circle cx="15" cy="30" r="1.5" />
    <circle cx="25" cy="30" r="1.5" />
    <circle cx="35" cy="30" r="1.5" />
    <circle cx="45" cy="30" r="1.5" />
    <circle cx="55" cy="30" r="1.5" />
    <circle cx="65" cy="30" r="1.5" />
    <circle cx="75" cy="30" r="1.5" />
    <circle cx="85" cy="30" r="1.5" />
    <circle cx="95" cy="30" r="1.5" />
    <circle cx="105" cy="30" r="1.5" />
    <circle cx="115" cy="30" r="1.5" />
    <circle cx="125" cy="30" r="1.5" />
    <circle cx="135" cy="30" r="1.5" />
    
    <!-- Middle Row 1 -->
    <circle cx="15" cy="40" r="1.5" />
    <circle cx="25" cy="40" r="1.5" />
    <circle cx="35" cy="40" r="1.5" />
    <circle cx="45" cy="40" r="1.5" />
    <circle cx="55" cy="40" r="1.5" />
    <circle cx="65" cy="40" r="1.5" />
    <circle cx="75" cy="40" r="1.5" />
    <circle cx="85" cy="40" r="1.5" />
    <circle cx="95" cy="40" r="1.5" />
    <circle cx="105" cy="40" r="1.5" />
    <circle cx="115" cy="40" r="1.5" />
    <circle cx="125" cy="40" r="1.5" />
    <circle cx="135" cy="40" r="1.5" />
    
    <!-- Bottom Row -->
    <circle cx="15" cy="50" r="1.5" />
    <circle cx="25" cy="50" r="1.5" />
    <circle cx="35" cy="50" r="1.5" />
    <circle cx="45" cy="50" r="1.5" />
    <circle cx="55" cy="50" r="1.5" />
    <circle cx="65" cy="50" r="1.5" />
    <circle cx="75" cy="50" r="1.5" />
    <circle cx="85" cy="50" r="1.5" />
    <circle cx="95" cy="50" r="1.5" />
    <circle cx="105" cy="50" r="1.5" />
    <circle cx="115" cy="50" r="1.5" />
    <circle cx="125" cy="50" r="1.5" />
    <circle cx="135" cy="50" r="1.5" />
  </g>
  
  <!-- Center Divider -->
  <line x1="75" y1="25" x2="75" y2="55" stroke="#adb5bd" stroke-width="1" stroke-dasharray="3,1"/>
</svg>