<svg xmlns="http://www.w3.org/2000/svg" viewBox="0 0 64 64" width="64" height="64">
  <!-- Background -->
  <rect x="0" y="0" width="64" height="64" fill="#1e1e1e" rx="6" ry="6"/>
  
  <!-- Breadboard Body -->
  <rect x="8" y="14" width="48" height="36" fill="#f0f0f0" rx="2" ry="2"/>
  <rect x="10" y="16" width="44" height="32" fill="#e5e5e5" rx="1" ry="1"/>
  
  <!-- Power Rails -->
  <rect x="10" y="16" width="44" height="4" fill="#cc0000"/>
  <rect x="10" y="44" width="44" height="4" fill="#0000cc"/>
  
  <!-- Row Labels -->
  <text x="5" y="28" font-family="Arial" font-size="4" fill="#888">A</text>
  <text x="5" y="36" font-family="Arial" font-size="4" fill="#888">B</text>
  <text x="58" y="28" font-family="Arial" font-size="4" fill="#888">A</text>
  <text x="58" y="36" font-family="Arial" font-size="4" fill="#888">B</text>
  
  <!-- Pin Holes Top Row -->
  <circle cx="15" cy="26" r="1" fill="#222"/>
  <circle cx="21" cy="26" r="1" fill="#222"/>
  <circle cx="27" cy="26" r="1" fill="#222"/>
  <circle cx="33" cy="26" r="1" fill="#222"/>
  <circle cx="39" cy="26" r="1" fill="#222"/>
  <circle cx="45" cy="26" r="1" fill="#222"/>
  <circle cx="51" cy="26" r="1" fill="#222"/>
  
  <!-- Pin Holes Bottom Row -->
  <circle cx="15" cy="38" r="1" fill="#222"/>
  <circle cx="21" cy="38" r="1" fill="#222"/>
  <circle cx="27" cy="38" r="1" fill="#222"/>
  <circle cx="33" cy="38" r="1" fill="#222"/>
  <circle cx="39" cy="38" r="1" fill="#222"/>
  <circle cx="45" cy="38" r="1" fill="#222"/>
  <circle cx="51" cy="38" r="1" fill="#222"/>
  
  <!-- Power Rail Markers -->
  <text x="14" y="19" font-family="Arial" font-size="4" fill="#fff">+</text>
  <text x="22" y="19" font-family="Arial" font-size="4" fill="#fff">5V</text>
  <text x="38" y="19" font-family="Arial" font-size="4" fill="#fff">3.3V</text>
  <text x="51" y="19" font-family="Arial" font-size="4" fill="#fff">+</text>
  
  <text x="14" y="47" font-family="Arial" font-size="4" fill="#fff">-</text>
  <text x="22" y="47" font-family="Arial" font-size="4" fill="#fff">GND</text>
  <text x="50" y="47" font-family="Arial" font-size="4" fill="#fff">-</text>
  
  <!-- Center Divider -->
  <rect x="31.5" y="24" width="1" height="16" fill="#ccc"/>
</svg>