<svg xmlns="http://www.w3.org/2000/svg" viewBox="0 0 64 64" width="64" height="64">
  <!-- Background -->
  <rect x="0" y="0" width="64" height="64" fill="#1e1e1e" rx="6" ry="6"/>
  
  <!-- Buzzer Body -->
  <circle cx="32" cy="32" r="18" fill="#333"/>
  <circle cx="32" cy="32" r="15" fill="#222"/>
  <circle cx="32" cy="32" r="12" fill="#444"/>
  
  <!-- Sound Wave Pattern -->
  <circle cx="32" cy="32" r="8" fill="none" stroke="#666" stroke-width="1"/>
  <circle cx="32" cy="32" r="5" fill="none" stroke="#666" stroke-width="1"/>
  <circle cx="32" cy="32" r="2" fill="#888"/>
  
  <!-- Sound Holes -->
  <circle cx="28" cy="25" r="1" fill="#111"/>
  <circle cx="36" cy="25" r="1" fill="#111"/>
  <circle cx="24" cy="30" r="1" fill="#111"/>
  <circle cx="40" cy="30" r="1" fill="#111"/>
  <circle cx="28" cy="39" r="1" fill="#111"/>
  <circle cx="36" cy="39" r="1" fill="#111"/>
  <circle cx="24" cy="34" r="1" fill="#111"/>
  <circle cx="40" cy="34" r="1" fill="#111"/>
  <circle cx="32" cy="42" r="1" fill="#111"/>
  <circle cx="32" cy="22" r="1" fill="#111"/>
  
  <!-- Wire Leads -->
  <line x1="12" y1="32" x2="14" y2="32" stroke="#cccccc" stroke-width="2"/>
  <line x1="50" y1="32" x2="52" y2="32" stroke="#cccccc" stroke-width="2"/>
  
  <!-- Pin Connectors -->
  <circle cx="12" cy="32" r="2" fill="#ffcc00"/>
  <circle cx="52" cy="32" r="2" fill="#ffcc00"/>
  
  <!-- Polarity Mark -->
  <text x="18" y="36" font-family="Arial" font-size="8" fill="#fff">+</text>
  <text x="44" y="36" font-family="Arial" font-size="8" fill="#fff">-</text>
</svg>