<svg width="128" height="128" viewBox="0 0 128 128" xmlns="http://www.w3.org/2000/svg">
  <!-- Background -->
  <rect width="128" height="128" fill="#1a1a2e" />
  
  <!-- Pixel Grid -->
  <g stroke="#4a4a6a" stroke-width="0.5" opacity="0.3">
    <!-- Horizontal lines -->
    <line x1="0" y1="16" x2="128" y2="16" />
    <line x1="0" y1="32" x2="128" y2="32" />
    <line x1="0" y1="48" x2="128" y2="48" />
    <line x1="0" y1="64" x2="128" y2="64" />
    <line x1="0" y1="80" x2="128" y2="80" />
    <line x1="0" y1="96" x2="128" y2="96" />
    <line x1="0" y1="112" x2="128" y2="112" />
    
    <!-- Vertical lines -->
    <line x1="16" y1="0" x2="16" y2="128" />
    <line x1="32" y1="0" x2="32" y2="128" />
    <line x1="48" y1="0" x2="48" y2="128" />
    <line x1="64" y1="0" x2="64" y2="128" />
    <line x1="80" y1="0" x2="80" y2="128" />
    <line x1="96" y1="0" x2="96" y2="128" />
    <line x1="112" y1="0" x2="112" y2="128" />
  </g>
  
  <!-- Circuit pattern decorations -->
  <g stroke="#4ade80" stroke-width="1" opacity="0.15">
    <!-- Circuit pattern 1 -->
    <path d="M 8,8 L 24,8 L 24,24 L 40,24 L 40,40" fill="none" />
    <circle cx="8" cy="8" r="2" fill="#4ade80" />
    <circle cx="40" cy="40" r="2" fill="#4ade80" />
    
    <!-- Circuit pattern 2 -->
    <path d="M 88,24 L 104,24 L 104,40 L 120,40" fill="none" />
    <circle cx="88" cy="24" r="2" fill="#4ade80" />
    <circle cx="120" cy="40" r="2" fill="#4ade80" />
    
    <!-- Circuit pattern 3 -->
    <path d="M 24,88 L 24,104 L 40,104 L 40,120" fill="none" />
    <circle cx="24" cy="88" r="2" fill="#4ade80" />
    <circle cx="40" cy="120" r="2" fill="#4ade80" />
    
    <!-- Circuit pattern 4 -->
    <path d="M 88,72 L 104,72 L 104,88 L 120,88 L 120,104" fill="none" />
    <circle cx="88" cy="72" r="2" fill="#4ade80" />
    <circle cx="120" cy="104" r="2" fill="#4ade80" />
  </g>
</svg>