<svg xmlns="http://www.w3.org/2000/svg" viewBox="0 0 40 40" width="40" height="40">
  <circle cx="20" cy="20" r="12" fill="#444" stroke="#333" stroke-width="1.5"/>
  <path d="M20,15 Q23,18 26,15 Q23,21 26,24 Q20,22 14,24 Q17,21 14,15 Q17,18 20,15 Z" fill="#ff0000" fill-opacity="0.5"/>
  <path d="M20,15 Q17,18 14,15 Q17,21 14,24 Q20,22 26,24 Q23,21 26,15 Q23,18 20,15 Z" fill="#00ff00" fill-opacity="0.5"/>
  <path d="M20,15 Q23,18 26,15 Q17,15 14,15 Q17,19 20,15 Z" fill="#0000ff" fill-opacity="0.5"/>
  <line x1="20" y1="5" x2="20" y2="10" stroke="#333" stroke-width="2"/>
  <line x1="14" y1="32" x2="14" y2="38" stroke="#333" stroke-width="2"/>
  <line x1="20" y1="32" x2="20" y2="38" stroke="#333" stroke-width="2"/>
  <line x1="26" y1="32" x2="26" y2="38" stroke="#333" stroke-width="2"/>
</svg>