<?xml version="1.0" encoding="UTF-8"?>
<svg width="120" height="80" viewBox="0 0 120 80" xmlns="http://www.w3.org/2000/svg">
  <!-- Breadboard -->
  <g transform="translate(0, 0)">
    <!-- Main board -->
    <rect x="0" y="0" width="120" height="80" fill="#f8f8f8" stroke="#333" stroke-width="1" rx="3" />
    
    <!-- Power rails (top) -->
    <rect x="5" y="5" width="110" height="10" fill="#d00" stroke="#333" stroke-width="0.5" rx="1" />
    <text x="60" y="12" font-family="Arial" font-size="6" fill="white" text-anchor="middle">+ Positive Rail</text>
    
    <!-- Power rails (bottom) -->
    <rect x="5" y="65" width="110" height="10" fill="#333" stroke="#333" stroke-width="0.5" rx="1" />
    <text x="60" y="72" font-family="Arial" font-size="6" fill="white" text-anchor="middle">- Negative Rail</text>
    
    <!-- Connection rows (top half) -->
    <g fill="#ddd" stroke="#bbb" stroke-width="0.5">
      <rect x="5" y="20" width="110" height="20" rx="1" />
      <!-- Terminal holes -->
      <g fill="#999">
        <!-- Row 1 -->
        <circle cx="10" cy="25" r="1.2" />
        <circle cx="20" cy="25" r="1.2" />
        <circle cx="30" cy="25" r="1.2" />
        <circle cx="40" cy="25" r="1.2" />
        <circle cx="50" cy="25" r="1.2" />
        <circle cx="60" cy="25" r="1.2" />
        <circle cx="70" cy="25" r="1.2" />
        <circle cx="80" cy="25" r="1.2" />
        <circle cx="90" cy="25" r="1.2" />
        <circle cx="100" cy="25" r="1.2" />
        <circle cx="110" cy="25" r="1.2" />
        
        <!-- Row 2 -->
        <circle cx="10" cy="35" r="1.2" />
        <circle cx="20" cy="35" r="1.2" />
        <circle cx="30" cy="35" r="1.2" />
        <circle cx="40" cy="35" r="1.2" />
        <circle cx="50" cy="35" r="1.2" />
        <circle cx="60" cy="35" r="1.2" />
        <circle cx="70" cy="35" r="1.2" />
        <circle cx="80" cy="35" r="1.2" />
        <circle cx="90" cy="35" r="1.2" />
        <circle cx="100" cy="35" r="1.2" />
        <circle cx="110" cy="35" r="1.2" />
      </g>
    </g>
    
    <!-- Center divide -->
    <rect x="5" y="40" width="110" height="2" fill="#bbb" />
    
    <!-- Connection rows (bottom half) -->
    <g fill="#ddd" stroke="#bbb" stroke-width="0.5">
      <rect x="5" y="42" width="110" height="20" rx="1" />
      <!-- Terminal holes -->
      <g fill="#999">
        <!-- Row 3 -->
        <circle cx="10" cy="47" r="1.2" />
        <circle cx="20" cy="47" r="1.2" />
        <circle cx="30" cy="47" r="1.2" />
        <circle cx="40" cy="47" r="1.2" />
        <circle cx="50" cy="47" r="1.2" />
        <circle cx="60" cy="47" r="1.2" />
        <circle cx="70" cy="47" r="1.2" />
        <circle cx="80" cy="47" r="1.2" />
        <circle cx="90" cy="47" r="1.2" />
        <circle cx="100" cy="47" r="1.2" />
        <circle cx="110" cy="47" r="1.2" />
        
        <!-- Row 4 -->
        <circle cx="10" cy="57" r="1.2" />
        <circle cx="20" cy="57" r="1.2" />
        <circle cx="30" cy="57" r="1.2" />
        <circle cx="40" cy="57" r="1.2" />
        <circle cx="50" cy="57" r="1.2" />
        <circle cx="60" cy="57" r="1.2" />
        <circle cx="70" cy="57" r="1.2" />
        <circle cx="80" cy="57" r="1.2" />
        <circle cx="90" cy="57" r="1.2" />
        <circle cx="100" cy="57" r="1.2" />
        <circle cx="110" cy="57" r="1.2" />
      </g>
    </g>
  </g>
</svg>