<?xml version="1.0" encoding="UTF-8" standalone="no"?>
<svg width="160" height="100" viewBox="0 0 160 100" xmlns="http://www.w3.org/2000/svg">
  <!-- Microcontroller Board -->
  <rect x="10" y="10" width="140" height="80" rx="5" fill="#1e88e5" stroke="#0d47a1" stroke-width="2"/>
  
  <!-- CPU Area -->
  <rect x="50" y="30" width="60" height="40" rx="2" fill="#424242" stroke="#212121" stroke-width="1"/>
  
  <!-- Text Labels -->
  <text x="80" y="25" font-family="Arial" font-size="10" text-anchor="middle" fill="white">Pico W</text>
  
  <!-- Pin Connectors - Left Side -->
  <g id="left-pins">
    <rect x="5" y="15" width="5" height="5" fill="#fdd835" stroke="#f9a825" stroke-width="1"/>
    <rect x="5" y="25" width="5" height="5" fill="#fdd835" stroke="#f9a825" stroke-width="1"/>
    <rect x="5" y="35" width="5" height="5" fill="#fdd835" stroke="#f9a825" stroke-width="1"/>
    <rect x="5" y="45" width="5" height="5" fill="#fdd835" stroke="#f9a825" stroke-width="1"/>
    <rect x="5" y="55" width="5" height="5" fill="#fdd835" stroke="#f9a825" stroke-width="1"/>
    <rect x="5" y="65" width="5" height="5" fill="#fdd835" stroke="#f9a825" stroke-width="1"/>
    <rect x="5" y="75" width="5" height="5" fill="#fdd835" stroke="#f9a825" stroke-width="1"/>
    <!-- Pin Labels -->
    <text x="20" y="19" font-family="Arial" font-size="6" fill="white">GP0</text>
    <text x="20" y="29" font-family="Arial" font-size="6" fill="white">GP1</text>
    <text x="20" y="39" font-family="Arial" font-size="6" fill="white">GP2</text>
    <text x="20" y="49" font-family="Arial" font-size="6" fill="white">GP3</text>
    <text x="20" y="59" font-family="Arial" font-size="6" fill="white">GP4</text>
    <text x="20" y="69" font-family="Arial" font-size="6" fill="white">GP5</text>
    <text x="20" y="79" font-family="Arial" font-size="6" fill="white">GND</text>
  </g>
  
  <!-- Pin Connectors - Right Side -->
  <g id="right-pins">
    <rect x="150" y="15" width="5" height="5" fill="#fdd835" stroke="#f9a825" stroke-width="1"/>
    <rect x="150" y="25" width="5" height="5" fill="#fdd835" stroke="#f9a825" stroke-width="1"/>
    <rect x="150" y="35" width="5" height="5" fill="#fdd835" stroke="#f9a825" stroke-width="1"/>
    <rect x="150" y="45" width="5" height="5" fill="#fdd835" stroke="#f9a825" stroke-width="1"/>
    <rect x="150" y="55" width="5" height="5" fill="#fdd835" stroke="#f9a825" stroke-width="1"/>
    <rect x="150" y="65" width="5" height="5" fill="#fdd835" stroke="#f9a825" stroke-width="1"/>
    <rect x="150" y="75" width="5" height="5" fill="#fdd835" stroke="#f9a825" stroke-width="1"/>
    <!-- Pin Labels -->
    <text x="140" y="19" font-family="Arial" font-size="6" text-anchor="end" fill="white">GP6</text>
    <text x="140" y="29" font-family="Arial" font-size="6" text-anchor="end" fill="white">GP7</text>
    <text x="140" y="39" font-family="Arial" font-size="6" text-anchor="end" fill="white">GP8</text>
    <text x="140" y="49" font-family="Arial" font-size="6" text-anchor="end" fill="white">GP9</text>
    <text x="140" y="59" font-family="Arial" font-size="6" text-anchor="end" fill="white">GP10</text>
    <text x="140" y="69" font-family="Arial" font-size="6" text-anchor="end" fill="white">GP11</text>
    <text x="140" y="79" font-family="Arial" font-size="6" text-anchor="end" fill="white">VSYS</text>
  </g>
</svg>