<svg xmlns="http://www.w3.org/2000/svg" viewBox="0 0 64 64" width="64" height="64">
  <!-- Background with circuit pattern -->
  <rect x="0" y="0" width="64" height="64" fill="#0c1832" rx="5" ry="5"/>
  
  <!-- Circuit traces -->
  <path d="M10,32 H25 M32,10 V25 M32,39 V54 M39,32 H54" stroke="#2563eb" stroke-width="2" fill="none"/>
  <circle cx="32" cy="32" r="4" fill="#2563eb"/>
  
  <path d="M16,16 H24 M40,16 H48 M16,48 H24 M40,48 H48" stroke="#2563eb" stroke-width="2" fill="none"/>
  <circle cx="16" cy="16" r="2" fill="#2563eb"/>
  <circle cx="48" cy="16" r="2" fill="#2563eb"/>
  <circle cx="16" cy="48" r="2" fill="#2563eb"/>
  <circle cx="48" cy="48" r="2" fill="#2563eb"/>

  <!-- Components -->
  <rect x="28" y="14" width="8" height="4" fill="#ff5252" rx="1" ry="1"/>
  <rect x="14" y="28" width="4" height="8" fill="#4ade80" rx="1" ry="1"/>
  <rect x="46" y="28" width="4" height="8" fill="#a855f7" rx="1" ry="1"/>
  <rect x="28" y="46" width="8" height="4" fill="#fcd34d" rx="1" ry="1"/>
</svg>