<?xml version="1.0" encoding="UTF-8"?>
<svg width="140" height="140" viewBox="0 0 140 140" xmlns="http://www.w3.org/2000/svg">
  <!-- Base Cylinder -->
  <rect x="35" y="50" width="70" height="30" rx="2" ry="2" fill="#1A1A1A" stroke="#000" stroke-width="1.5"/>
  
  <!-- Dial Base -->
  <circle cx="70" cy="65" r="30" fill="#333" stroke="#222" stroke-width="1.5"/>
  
  <!-- Dial Surface -->
  <circle cx="70" cy="65" r="25" fill="#444" stroke="#222" stroke-width="1"/>
  
  <!-- Dial Indicator -->
  <rect x="68" y="42" width="4" height="20" rx="1" ry="1" fill="#eee" stroke="#333" stroke-width="0.5"/>
  
  <!-- Value Markings -->
  <path d="M 43,65 L 47,65" stroke="#aaa" stroke-width="1.5"/>
  <path d="M 93,65 L 97,65" stroke="#aaa" stroke-width="1.5"/>
  <path d="M 70,38 L 70,42" stroke="#aaa" stroke-width="1.5"/>
  <path d="M 70,88 L 70,92" stroke="#aaa" stroke-width="1.5"/>
  <path d="M 50,45 L 53,48" stroke="#aaa" stroke-width="1"/>
  <path d="M 87,48 L 90,45" stroke="#aaa" stroke-width="1"/>
  <path d="M 50,85 L 53,82" stroke="#aaa" stroke-width="1"/>
  <path d="M 87,82 L 90,85" stroke="#aaa" stroke-width="1"/>
  
  <!-- Terminals -->
  <line x1="0" y1="35" x2="40" y2="55" stroke="#999" stroke-width="3"/>
  <line x1="0" y1="95" x2="40" y2="75" stroke="#999" stroke-width="3"/>
  <line x1="140" y1="65" x2="100" y2="65" stroke="#999" stroke-width="3"/>
  
  <!-- Terminal Labels -->
  <text x="20" y="30" font-family="Arial" font-size="9" fill="#333" text-anchor="middle">1</text>
  <text x="20" y="110" font-family="Arial" font-size="9" fill="#333" text-anchor="middle">3</text>
  <text x="120" y="60" font-family="Arial" font-size="9" fill="#333" text-anchor="middle">2</text>
  
  <!-- Potentiometer Value Label -->
  <text x="70" y="115" font-family="Arial" font-size="10" fill="#333" text-anchor="middle">10kΩ</text>
</svg>